<?xml version="1.0" encoding="UTF-8"?>
<svg xmlns="http://www.w3.org/2000/svg" xmlns:xlink="http://www.w3.org/1999/xlink" viewBox="0 0 24 24" width="24px" height="24px">
<g id="surface1230915">
<path style=" stroke:none;fill-rule:nonzero;fill:rgb(11.764706%,66.666669%,94.509804%);fill-opacity:1;" d="M 12 24 C 5.371094 24 0 18.628906 0 12 C 0 5.371094 5.371094 0 12 0 C 18.628906 0 24 5.371094 24 12 C 24 18.628906 18.628906 24 12 24 Z M 12 24 "/>
<path style=" stroke:none;fill-rule:nonzero;fill:rgb(100%,100%,100%);fill-opacity:1;" d="M 20.035156 7.488281 C 19.441406 7.753906 18.804688 7.929688 18.140625 8.007812 C 18.820312 7.601562 19.34375 6.953125 19.589844 6.1875 C 18.953125 6.5625 18.246094 6.835938 17.496094 6.984375 C 16.894531 6.34375 16.039062 5.945312 15.089844 5.945312 C 13.269531 5.945312 11.792969 7.417969 11.792969 9.238281 C 11.792969 9.496094 11.824219 9.75 11.878906 9.992188 C 9.140625 9.851562 6.714844 8.539062 5.085938 6.546875 C 4.800781 7.035156 4.640625 7.601562 4.640625 8.203125 C 4.640625 9.347656 5.222656 10.355469 6.105469 10.949219 C 5.566406 10.929688 5.058594 10.78125 4.613281 10.535156 C 4.613281 10.550781 4.613281 10.5625 4.613281 10.578125 C 4.613281 12.175781 5.75 13.503906 7.257812 13.808594 C 6.980469 13.882812 6.6875 13.925781 6.390625 13.925781 C 6.175781 13.925781 5.96875 13.90625 5.769531 13.863281 C 6.1875 15.171875 7.40625 16.128906 8.847656 16.15625 C 7.71875 17.039062 6.296875 17.5625 4.753906 17.5625 C 4.488281 17.5625 4.226562 17.550781 3.96875 17.519531 C 5.425781 18.453125 7.160156 19 9.019531 19 C 15.082031 19 18.398438 13.976562 18.398438 9.621094 C 18.398438 9.480469 18.394531 9.335938 18.390625 9.195312 C 19.03125 8.730469 19.589844 8.148438 20.035156 7.488281 Z M 20.035156 7.488281 "/>
</g>
</svg>
